<svg xmlns="http://www.w3.org/2000/svg" aria-hidden="true" style="position: absolute; width: 0; height: 0; overflow: hidden;">
  <defs>
  <symbol id="icon-antenna" viewBox="0 0 32 32">
      <path fill="#2e2f42" d="m30.773 22.098-8.443-8.505.937-4.615c.242.094.499.144.758.146h.006c1.192.014 2.17-.941 2.184-2.133s-.941-2.17-2.133-2.184c-1.192-.014-2.17.941-2.184 2.133-.003.255.039.509.125.749l-4.96.605L8.972.161C8.873.06 8.737.002 8.595.001c-.14.001-.274.056-.373.155L6.709 1.66c-.208.208-.208.546 0 .754l.814.826C4.37 9.038 5.394 16.218 10.042 20.903c.043.041.092.074.146.098-.034.18-.051.364-.052.547v6.187h-6.4c-1.472.002-2.665 1.195-2.667 2.667v1.067c0 .295.239.533.533.533h24.533c.295 0 .533-.239.533-.533v-1.067c-.002-1.472-1.195-2.665-2.667-2.667h-6.4v-2.742c1.003.21 2.024.317 3.049.32 2.458-.003 4.877-.615 7.04-1.783l.818.823c.099.101.235.159.377.16.14-.001.274-.056.373-.155l1.513-1.504c.208-.208.208-.546 0-.754zM23.28 6.233c.418-.415 1.093-.414 1.509.004s.414 1.093-.004 1.508c-.2.199-.47.31-.752.31h-.003c-.589-.003-1.064-.483-1.061-1.072.002-.282.115-.552.314-.751h-.002zm-1.256 3.505-.598 2.946-1.175-1.182 1.774-1.763zm-.605-.902-1.92 1.909-1.485-1.493 3.405-.415zM24.004 28.8c.884 0 1.6.716 1.6 1.6v.533H2.137V30.4c0-.884.716-1.6 1.6-1.6h20.267zm-7.467-2.133v1.067h-5.333v-1.067h5.333zM11.204 25.6v-4.053c0-1.294 1.196-2.347 2.667-2.347s2.667 1.053 2.667 2.347V25.6h-5.333zm6.4-1.696v-2.357c0-1.882-1.675-3.413-3.733-3.413-1.331-.02-2.576.657-3.281 1.786C6.532 15.646 5.619 9.275 8.311 4.033l18.602 18.708c-2.872 1.461-6.165 1.873-9.309 1.163zm11.289-.684L7.836 2.039l.755-.752 7.935 7.98c.004 0 .006.007.01.01l13.115 13.191-.757.752z" style="fill: var(--color1, #2e2f42)"/>
      <path d="M13.876 20.267h-.005c-.884-.001-1.601.714-1.602 1.598s.714 1.601 1.598 1.602h.005c.884.001 1.601-.714 1.602-1.598s-.714-1.601-1.598-1.602zm.373 1.978c-.1.1-.236.156-.378.155-.295-.002-.532-.242-.531-.536.001-.141.057-.276.157-.375s.233-.154.373-.155c.295.002.532.242.531.536-.001.141-.057.276-.157.375h.005z"/>
    </symbol>
    <symbol id="icon-astronaut" viewBox="0 0 32 32">
      <path d="M31.974 4.524c-.063-.193-.229-.333-.43-.363l-1.91-.278-.855-1.731c-.179-.365-.777-.365-.956 0l-.855 1.731-1.91.278c-.201.029-.367.17-.431.363-.062.193-.011.405.135.547l1.383 1.348-.326 1.903c-.034.2.048.402.212.522.166.121.382.135.562.04l1.709-.899 1.709.899c.078.041.164.061.249.061.11 0 .221-.034.314-.102.164-.119.246-.322.212-.522l-.326-1.903 1.383-1.348c.145-.142.197-.354.135-.547zm-2.463 1.327c-.125.122-.183.299-.153.472l.191 1.114-1-.526c-.078-.041-.163-.061-.249-.061s-.17.02-.249.061l-1.001.526.191-1.114c.03-.173-.028-.349-.153-.472l-.81-.789 1.119-.163c.174-.025.324-.134.402-.292l.5-1.013.5 1.013c.078.157.228.267.402.292l1.119.163-.809.789zM26.133 20.522h-1.067v1.067h1.067v-1.067zM26.133 22.656h-1.067v1.067h1.067v-1.067zM27.2 21.589h-1.067v1.067H27.2v-1.067zM25.067 21.589H24v1.067h1.067v-1.067zM22.4 26.389h-1.067v1.067H22.4v-1.067zM22.4 28.522h-1.067v1.067H22.4v-1.067zM23.467 27.456H22.4v1.067h1.067v-1.067zM21.333 27.456h-1.067v1.067h1.067v-1.067zM16 24.256h-1.067v1.067H16v-1.067zM16 26.389h-1.067v1.067H16v-1.067zM17.067 25.322H16v1.067h1.067v-1.067zM14.933 25.322h-1.067v1.067h1.067v-1.067zM5.867 6.122H4.8v1.067h1.067V6.122zM5.867 8.255H4.8v1.067h1.067V8.255z" />
      <path d="M6.933 7.189H5.866v1.067h1.067V7.189zM4.8 7.189H3.733v1.067H4.8V7.189z" />
      <path fill="#2e2f42" d="M24.715 14.159c-.287-.388-.709-.637-1.188-.705-.481-.068-.956.058-1.34.352l-1.252.96-1.898 1.417-1.358-.541c2.421-1.086 4.114-3.508 4.114-6.32 0-3.823-3.123-6.933-6.961-6.933s-6.961 3.11-6.961 6.933c0 1.386.414 2.674 1.12 3.758l-2.764-.024h-.005c-.009 0-.015.004-.023.005-.053.002-.105.013-.155.031-.013.005-.026.008-.038.013-.006.003-.013.003-.019.006l-3.233 1.596c-.001 0-.001 0-.001.001l-1.893.911c-.021.009-.042.021-.063.035-.755.502-1.012 1.489-.598 2.295.22.429.595.745 1.056.889.178.055.359.083.539.083.29 0 .577-.071.839-.211l1.388-.738 2.264-1.169 1.357-.008L2.2 22.211c-.001.001-.001.001-.002.001L.859 23.545c-.316.315-.49.732-.49 1.178s.174.863.49 1.179c.325.323.752.485 1.179.485s.854-.162 1.18-.485l1.314-1.309 1.741-1.3.901.897-1.762 1.754c0 .001-.001.001-.002.001l-1.339 1.333c-.316.315-.49.732-.49 1.178s.174.863.49 1.179c.325.323.753.485 1.18.485s.855-.162 1.18-.485l3.482-3.467c.001-.001.001-.001.001-.002l1.01-1-.004-.004c.006-.006.015-.009.022-.015l5.166-5.658 3.471.494c.025.004.05.005.075.005.065 0 .127-.015.187-.038.018-.006.033-.015.05-.023.019-.01.039-.015.058-.027l3.213-2.133c.012-.008.018-.021.029-.029.013-.01.029-.014.041-.026l1.271-1.191c.662-.62.753-1.635.212-2.362zM2.13 17.77c-.173.093-.37.111-.558.052-.187-.058-.338-.186-.427-.358-.161-.314-.068-.695.214-.902l1.314-.632.449 1.313-.992.527zm3.498-1.828-1.548.8-.439-1.283 2.027-1.001-.04 1.484zm15.099-6.62c0 .918-.219 1.785-.599 2.559l-4.181-1.899c-.044-.573-.341-1.075-.788-1.388l1.464-4.86c2.378.756 4.105 2.974 4.105 5.588zm-11.789 0c0-3.235 2.644-5.867 5.894-5.867.253 0 .5.021.745.052l-1.432 4.754c-.019-.001-.037-.006-.057-.006-1.033 0-1.873.837-1.873 1.867s.84 1.867 1.873 1.867c.694 0 1.294-.383 1.618-.945l3.862 1.755c-1.075 1.446-2.795 2.39-4.737 2.39-3.25 0-5.894-2.632-5.894-5.867zm5.956.8c0 .441-.362.8-.806.8s-.806-.359-.806-.8c0-.441.362-.8.806-.8s.806.359.806.8zM2.465 25.146c-.236.234-.619.234-.854.001-.114-.114-.176-.263-.176-.423s.062-.309.176-.421l.962-.958.851.848-.959.955zm3.214 3.734c-.236.234-.619.235-.855.001-.114-.114-.176-.263-.176-.423s.062-.309.176-.421l.963-.959.852.848-.96.955zm3.481-3.469c-.001 0-.001 0-.002.001l-1.765 1.76-.852-.848 1.763-1.755s.001-.001.002-.001c.04-.04.065-.088.09-.135.007-.014.02-.026.026-.04.017-.041.019-.085.026-.129.003-.025.014-.047.014-.073 0-.036-.013-.07-.02-.106-.006-.032-.006-.065-.019-.095-.02-.05-.055-.094-.091-.138-.01-.012-.014-.027-.025-.038h-.001c-.001 0-.001-.002-.001-.002l-1.607-1.6c-.017-.017-.039-.024-.058-.038-.028-.022-.055-.042-.087-.058-.03-.015-.061-.024-.093-.033-.034-.01-.067-.017-.103-.02-.033-.002-.063.001-.095.005-.036.004-.069.009-.104.02-.034.011-.063.027-.094.045-.02.011-.042.015-.061.029L4.23 23.486l-.901-.897 2.399-2.386 4.361 4.289-.928.919zm6.819-7.017c-.015-.002-.03.004-.045.003-.039-.002-.076.001-.115.007-.03.005-.059.011-.088.021-.034.012-.065.028-.097.047-.03.018-.057.037-.083.061-.013.011-.028.017-.04.029l-4.698 5.146-4.328-4.257 2.833-2.818c.209-.208.21-.546.002-.755-.105-.105-.243-.157-.381-.156v-.001l-2.219.013.028-1.607 3.104.027c1.265 1.294 3.029 2.101 4.981 2.101.437 0 .864-.045 1.279-.123.04.032.079.065.13.085l2.41.96.152.758.178.885-3.003-.427zm4.041.178-.313-1.558 1.446-1.08.947 1.257-2.08 1.381zm3.754-2.831-.838.785-.931-1.236.831-.637c.155-.119.351-.168.543-.143.193.027.364.128.48.284.217.292.18.699-.085.947z" style="fill: var(--color1, #2e2f42)"/>
      <path fill="#2e2f42" d="m13.602 18.544-2.143-2.133c-.207-.207-.545-.207-.753 0l-2.142 2.133c-.1.101-.157.236-.157.378s.056.278.157.378l2.142 2.133c.104.103.241.155.377.155s.273-.052.376-.155l2.143-2.133c.1-.1.157-.236.157-.378s-.057-.278-.157-.378zm-2.519 1.759-1.387-1.381 1.387-1.381 1.387 1.381-1.387 1.381zM17.164 5.071l-.258 1.036c.071.018 1.738.452 1.738 2.149h1.067c0-2.017-1.666-2.965-2.547-3.185zM19.711 9.322h-1.067v1.067h1.067V9.322z" style="fill: var(--color1, #2e2f42)"/>
    </symbol>
    <symbol id="icon-clock" viewBox="0 0 32 32">
      <path fill="#2e2f42" d="M31.297 15.301C31.295 6.849 24.442-.002 15.989 0S.686 6.855.688 15.308c.001 6.658 4.307 12.551 10.649 14.576.061.019.124.029.187.029.121 0 .239-.032.342-.094.135-.08.236-.207.283-.356l3.865-12.25c1.057-.005 1.909-.866 1.903-1.923s-.866-1.909-1.923-1.903c-.284.001-.565.067-.82.191l-5.106-5.107c-.253-.245-.657-.238-.902.016-.239.247-.239.639 0 .886l5.103 5.109c-.392.799-.168 1.764.536 2.309l-3.683 11.673C3.844 25.783.118 17.71 2.799 10.432S13.553-.572 20.831 2.109c7.278 2.681 11.004 10.754 8.323 18.032-1.31 3.556-4.001 6.431-7.462 7.973l-.398-1.874c-.073-.345-.411-.565-.756-.492-.109.023-.209.074-.293.148l-3.837 3.426c-.263.234-.287.637-.052.9.076.085.174.149.283.184l4.899 1.564c.335.108.694-.077.802-.412.034-.106.04-.219.017-.328l-.391-1.839c5.664-2.388 9.342-7.942 9.329-14.089zm-15.305-.637c.352 0 .638.286.638.638s-.286.638-.638.638c-.352 0-.638-.285-.638-.638s.285-.638.638-.638zm2.101 14.864 2.184-1.948.603 2.84-2.787-.892z" style="fill: var(--color1, #2e2f42)"/>
      <path d="M15.354 3.185V4.46c0 .352.285.638.638.638s.638-.285.638-.638V3.185c0-.352-.286-.638-.638-.638s-.638.286-.638.638zM3.876 14.664c-.352 0-.638.286-.638.638s.285.638.638.638h1.275c.352 0 .638-.285.638-.638s-.285-.638-.638-.638H3.876zM28.108 15.939c.352 0 .638-.285.638-.638s-.285-.638-.638-.638h-1.275c-.352 0-.638.286-.638.638s.286.638.638.638h1.275z"/>
    </symbol>
    <symbol id="icon-laptop-diagram" viewBox="0 0 32 32">
      <path d="M14.925 14.965h1.066v4.798h-1.066v-4.797zM19.19 17.097h1.066v2.665H19.19v-2.665zM10.661 18.696h1.066v1.066h-1.066v-1.066zM7.463 18.163h1.066v1.599H7.463v-1.599z"/>
      <path fill="#2e2f42" d="M1.599 28.291h25.587c.883 0 1.599-.716 1.599-1.599V24.56c0-.883-.716-1.599-1.599-1.599h-.533V9.668L29.681 6.8c.703.346 1.553.136 2.013-.499s.396-1.508-.152-2.068-1.42-.644-2.065-.198c-.644.446-.873 1.292-.542 2.002L26.654 8.2V6.97c0-.883-.716-1.599-1.599-1.599H3.733c-.883 0-1.599.716-1.599 1.599v15.992h-.533c-.883 0-1.599.716-1.599 1.599v2.132c0 .883.716 1.599 1.599 1.599zM30.384 4.837c.294 0 .533.239.533.533s-.239.533-.533.533c-.294 0-.533-.239-.533-.533s.239-.533.533-.533zM3.198 6.969c0-.294.239-.533.533-.533h21.322c.294 0 .533.239.533.533v2.239l-1.066 1.013V8.035c0-.294-.239-.533-.533-.533H4.797c-.294 0-.533.239-.533.533v13.326c0 .294.239.533.533.533h19.19c.294 0 .533-.239.533-.533v-9.674l1.066-1.01v12.284H3.198V6.969zm4.798 6.93c-.721-.002-1.354.478-1.546 1.174s.105 1.433.725 1.801c.62.368 1.41.276 1.928-.226l1.853.93c.215.108.476.057.636-.123l3.939-4.431 3.872 2.901c.208.156.498.139.686-.039l3.365-3.188v8.131H5.33V8.569h18.124v2.66l-3.771 3.572-3.904-2.927c-.222-.166-.534-.135-.718.072l-3.993 4.493-1.493-.746c.011-.064.018-.129.02-.193 0-.883-.716-1.599-1.599-1.599zm.533 1.599c0 .294-.239.533-.533.533s-.533-.239-.533-.533c0-.294.239-.533.533-.533s.533.239.533.533zm3.198 8.529h5.331v.533c0 .294-.239.533-.533.533h-4.264c-.294 0-.533-.239-.533-.533v-.533zm-10.661.533c0-.294.239-.533.533-.533h9.062v.533c0 .883.716 1.599 1.599 1.599h4.264c.883 0 1.599-.716 1.599-1.599v-.533h9.062c.294 0 .533.239.533.533v2.132c0 .294-.239.533-.533.533H1.598c-.294 0-.533-.239-.533-.533V24.56z" style="fill: var(--color1, #2e2f42)"/>
    </symbol>
    <symbol id="icon-instagram" viewBox="0 0 32 32">
      <path d="M32 16A16 16 0 0 1 4.7 27.3 16 16 0 0 1 16 0a16 16 0 0 1 16 16z"/>
      <path fill="#f4f4fd" d="M22.4 13.4c0-.7-.2-1.2-.3-1.6-.2-.4-.4-.8-.8-1.1-.3-.4-.7-.6-1-.8l-1.6-.3a43.3 43.3 0 0 0-6.9.3c-.4.2-.8.4-1.1.8-.3.3-.6.7-.7 1.1a44.2 44.2 0 0 0 0 8.4c.1.4.4.8.7 1.1.3.4.7.6 1.1.8l1.6.3a46.7 46.7 0 0 0 6.8-.3c.9-.4 1.6-1 1.9-2 .1-.3.3-.8.3-1.5v-5.2zm-1.2 5.2-.2 1.2c-.2.5-.6 1-1.2 1.2l-1.2.2a45 45 0 0 1-6.3-.2 2 2 0 0 1-.8-.5 2 2 0 0 1-.5-.7l-.2-1.2a45 45 0 0 1 .2-6.4l.5-.7.8-.5c.2 0 .5-.2 1.1-.2a45 45 0 0 1 6.4.2l.7.5.5.7.2 1.2a45 45 0 0 1 0 5.2z" style="fill: var(--color2, #f4f4fd)"/>
      <path fill="#f4f4fd" d="M16 12.7a3.3 3.3 0 1 0 0 6.6 3.3 3.3 0 0 0 0-6.6zm0 5.4a2.1 2.1 0 1 1 0-4.2 2.1 2.1 0 0 1 0 4.2zM20.2 12.6a.8.8 0 1 1-1.5 0 .8.8 0 0 1 1.5 0z" style="fill: var(--color2, #f4f4fd)"/>
    </symbol>
    <symbol id="icon-twitter" viewBox="0 0 32 32">
      <path d="M32 16A16 16 0 0 1 4.7 27.3 16 16 0 0 1 16 0a16 16 0 0 1 16 16z"/>
      <path fill="#f4f4fd" d="M22.4 12c-.5.2-1 .4-1.5.4.5-.3 1-.8 1.1-1.4-.5.3-1 .5-1.6.6a2.6 2.6 0 0 0-4.5 2.4 7.4 7.4 0 0 1-5.4-2.7c-.2.4-.4.8-.4 1.3 0 1 .5 1.7 1.2 2.2l-1.2-.3c0 1.3 1 2.3 2.1 2.6a2.6 2.6 0 0 1-1.2 0c.4 1 1.3 1.8 2.5 1.8A5.3 5.3 0 0 1 9.6 20a7.4 7.4 0 0 0 11.5-6.6c.5-.4 1-.8 1.3-1.4z" style="fill: var(--color2, #f4f4fd)"/>
    </symbol>
    <symbol id="icon-facebook" viewBox="0 0 32 32">
      <path d="M32 16A16 16 0 0 1 4.7 27.3 16 16 0 0 1 16 0a16 16 0 0 1 16 16z"/>
      <path fill="#f4f4fd" d="M18.1 11.7h1.2v-2l-1.7-.1c-1.7 0-2.8 1-2.8 3v1.8h-1.9v2.3h1.9v5.7H17v-5.7h1.8l.3-2.3h-2v-1.6c0-.6.1-1 1-1z" style="fill: var(--color2, #f4f4fd)"/>
    </symbol>
    <symbol id="icon-linkedin" viewBox="0 0 32 32">
      <path d="M32 16A16 16 0 0 1 4.7 27.3 16 16 0 0 1 16 0a16 16 0 0 1 16 16z"/>
      <path fill="#f4f4fd" d="M22.4 22.4v-4.7c0-2.3-.5-4-3.2-4-1.3 0-2.1.6-2.5 1.3V14H14v8.5h2.7v-4.2c0-1.1.2-2.2 1.6-2.2 1.3 0 1.4 1.2 1.4 2.2v4.2h2.6zM9.8 13.9h2.7v8.5H9.8v-8.5zM11.1 9.6c-.8 0-1.5.7-1.5 1.5s.7 1.6 1.5 1.6 1.6-.7 1.6-1.6c0-.8-.7-1.5-1.6-1.5z" style="fill: var(--color2, #f4f4fd)"/>
    </symbol>
    <symbol id="icon-footer-twitter" viewBox="0 0 32 32">
      <path d="M32 16A16 16 0 0 1 4.7 27.3 16 16 0 0 1 16 0a16 16 0 0 1 16 16z"/>
      <path fill="#f4f4fd" d="M25.6 10c-.7.4-1.5.6-2.3.7a4 4 0 0 0 1.8-2.2c-.8.4-1.6.8-2.5 1a4 4 0 0 0-6.8 3.5c-3.2-.1-6.1-1.7-8-4a4 4 0 0 0 1.1 5.2c-.6 0-1.2-.2-1.7-.5a4 4 0 0 0 3.1 3.9 4 4 0 0 1-1.8 0 4 4 0 0 0 3.7 2.8A8 8 0 0 1 6.4 22a11.1 11.1 0 0 0 17.2-10c.8-.5 1.5-1.2 2-2z" style="fill: var(--color2, #f4f4fd)"/>
    </symbol>
    <symbol id="icon-footer-facebook" viewBox="0 0 32 32">
      <path d="M32 16A16 16 0 0 1 4.7 27.3 16 16 0 0 1 16 0a16 16 0 0 1 16 16z"/>
      <path fill="#f4f4fd" d="M19.2 9.6H21v-3l-2.6-.2c-2.5 0-4.3 1.6-4.3 4.5v2.7h-2.7V17H14v8.6h3.5V17h2.6l.5-3.4h-3.1v-2.4c0-1 .2-1.6 1.6-1.6z" style="fill: var(--color2, #f4f4fd)"/>
    </symbol>
    <symbol id="icon-footer-linkedin" viewBox="0 0 32 32">
      <path d="M32 16A16 16 0 0 1 4.7 27.3 16 16 0 0 1 16 0a16 16 0 0 1 16 16z"/>
      <path fill="#f4f4fd" d="M25.6 25.6v-7c0-3.5-.7-6.1-4.8-6.1-2 0-3.2 1-3.7 2v-1.7h-4v12.8h4v-6.3c0-1.7.4-3.3 2.5-3.3 2 0 2 1.9 2 3.4v6.2h4zM6.7 12.8h4v12.8h-4V12.8zM8.7 6.4c-1.3 0-2.3 1-2.3 2.3a2.3 2.3 0 1 0 4.6 0c0-1.3-1-2.3-2.3-2.3z" style="fill: var(--color2, #f4f4fd)"/>
    </symbol>
    <symbol id="icon-footer-instagram" viewBox="0 0 32 32">
      <path d="M32 16A16 16 0 0 1 4.7 27.3 16 16 0 0 1 16 0a16 16 0 0 1 16 16z"/>
      <path fill="#f4f4fd" d="M25.6 12a7 7 0 0 0-.5-2.3c-.2-.6-.6-1.2-1-1.7-.6-.5-1.1-.9-1.8-1a7 7 0 0 0-2.3-.5 65.4 65.4 0 0 0-10.3.4c-.6.2-1.2.6-1.7 1.1-.4.5-.8 1-1 1.7a7 7 0 0 0-.5 2.3 65.4 65.4 0 0 0 .4 10.3L8 24c.5.5 1.1.9 1.7 1.1a7 7 0 0 0 2.4.4 70.5 70.5 0 0 0 10.2-.4 5 5 0 0 0 2.8-2.8 7 7 0 0 0 .5-2.3v-8zM23.9 20c0 1-.2 1.4-.4 1.8-.3.8-1 1.5-1.8 1.8-.3.1-.8.3-1.8.3a67.8 67.8 0 0 1-9.5-.3 3 3 0 0 1-1.1-.7 3 3 0 0 1-.7-1.1c-.2-.4-.3-.9-.4-1.8a67.8 67.8 0 0 1 .4-9.6c.1-.4.4-.7.7-1a3 3 0 0 1 1-.8c.4-.1 1-.3 1.9-.3a67.8 67.8 0 0 1 9.5.3l1.1.7c.3.4.6.7.7 1.1.2.4.3.9.4 1.8V20z" style="fill: var(--color2, #f4f4fd)"/>
      <path fill="#f4f4fd" d="M16 11a5 5 0 1 0 0 10 5 5 0 0 0 0-10zm0 8.2a3.2 3.2 0 1 1 0-6.4 3.2 3.2 0 0 1 0 6.4zM22.3 10.9a1.2 1.2 0 1 1-2.3 0 1.2 1.2 0 0 1 2.3 0z" style="fill: var(--color2, #f4f4fd)"/>
    </symbol>
    <symbol id="icon-close" viewBox="0 0 32 32">
      <path fill="#e7e9fc" d="M32 16a16 16 0 1 1-32 0 16 16 0 0 1 32 0z" style="fill: var(--color1, #e7e9fc)"/>
      <path fill="none" stroke="#0000001a" stroke-width="1" d="M31.3 16A15.3 15.3 0 1 1 .7 16a15.3 15.3 0 0 1 30.6 0z" style="stroke: var(--color2, #0000001a)"/>
      <path d="m21.3 11.7-1-1-4.3 4.2-4.3-4.2-1 1 4.2 4.3-4.2 4.3 1 1 4.3-4.2 4.3 4.2 1-1-4.2-4.3 4.2-4.3z"/>
    </symbol>
    <symbol id="icon-email" viewBox="0 0 32 32">
      <path d="M28 4H4a3 3 0 0 0-3 3v18a3 3 0 0 0 3 3h24a3 3 0 0 0 3-3V7a3 3 0 0 0-3-3zm-.6 6.4L16.8 17c-.5.3-1.1.3-1.6 0L4.6 10.4C4.2 10 4 9.7 4 9.3c0-1 1-1.6 2-1l10 6.2 10-6.3a1.3 1.3 0 1 1 1.4 2.2z"/>
    </symbol>
    <symbol id="icon-name" viewBox="0 0 32 32">
      <path d="M16 16a8 8 0 1 0 0-16 8 8 0 0 0 0 16zm0 4c-5.3 0-16 2.7-16 8v2c0 1.1.9 2 2 2h28a2 2 0 0 0 2-2v-2c0-5.3-10.7-8-16-8z"/>
    </symbol>
    <symbol id="icon-send" viewBox="0 0 32 32">
      <path fill="#fff" d="m32 2.7-32 15 10.2 3.1L26 8.5 14 22v7.3l5.7-5.5L27 26l5-23.3z" style="fill: var(--color5, #fff)"/>
    </symbol>
    <symbol id="icon-tel" viewBox="0 0 32 32">
      <path d="m28.9 21.8-4.6-.5c-1-.1-2.1.3-2.9 1l-3.3 3.3C13.1 23 9 18.9 6.4 13.9l3.3-3.3c.8-.8 1.1-1.9 1-3l-.5-4.4A3.6 3.6 0 0 0 6.7 0H3.6C1.6 0-.1 1.7 0 3.7A30.3 30.3 0 0 0 28.3 32c2 .1 3.7-1.6 3.7-3.6v-3c0-1.9-1.3-3.4-3.1-3.6z"/>
    </symbol>
    <symbol id="icon-x" viewBox="0 0 32 32">
      <path d="M32 3.2 28.8 0 16 12.8 3.2 0 0 3.2 12.8 16 0 28.8 3.2 32 16 19.2 28.8 32l3.2-3.2L19.2 16 32 3.2z"/>
    </symbol>
  </defs>
</svg>
